# xmcd
#
# Track frame offsets:
#	150
#	14100
#	31350
#	45825
#	59550
#	79425
#	96750
#	112275
#	131700
#	147300
#	163200
#	180375
#	198000
#	217875
#	235050
#	253425
#	271800
#	286425
#
# Disc length: 3839 seconds
#
# Revision: 0
# Processed by: cddbd v1.5.2PL0 Copyright (c) Steve Scherf et al.
# Submitted via: audiograbber 1.83.01
#
DISCID=100efd12
DTITLE=Compilation - AC-01
DYEAR=2008
DGENRE=Karaoke
TTITLE0=Dierks Bentley - Sideways
TTITLE1=Taylor Swift - You Belong With Me
TTITLE2=Taylor Swift - Crazier
TTITLE3=Jennifer Nettles ft K Bush - It Happens
TTITLE4=Brad Paisley - Then
TTITLE5=Lady Antebellum - I Run To You
TTITLE6=Montgomery Gentry - One In Every Crowd
TTITLE7=Carrie Underwood - I Told You So
TTITLE8=Zack Brown Band - Whatever It Is
TTITLE9=Rodney Atkins - It's America
TTITLE10=Keith Urban - Kiss A Girl
TTITLE11=Eli Young Band - Always The Love Songs
TTITLE12=Jason Michael Carroll - Where I'm From
TTITLE13=Jessica Harp - Boy Like Me
TTITLE14=Jennifer Nettles ft K Bush - Love (female solo)
TTITLE15=Jennifer Nettles ft K Bush - Love (male-female duet)
TTITLE16=Miley Cyrus - Hoedown Throwdown
TTITLE17=None - None
EXTD=
EXTT0=
EXTT1=
EXTT2=
EXTT3=
EXTT4=
EXTT5=
EXTT6=
EXTT7=
EXTT8=
EXTT9=
EXTT10=
EXTT11=
EXTT12=
EXTT13=
EXTT14=
EXTT15=
EXTT16=
EXTT17=
PLAYORDER=
